<?xml version="1.0" encoding="UTF-8" standalone="no"?>
<!DOCTYPE svg PUBLIC "-//W3C//DTD SVG 1.1//EN" "http://www.w3.org/Graphics/SVG/1.1/DTD/svg11.dtd">
<svg xmlns="http://www.w3.org/2000/svg" version="1.1" viewBox="0.00 0.00 120.00 120.00">
<path fill="#3c97fc" d="
  M 25.86 120.00
  L 22.94 120.00
  Q 15.96 119.10 16.53 111.25
  Q 19.28 73.54 29.60 35.07
  C 31.51 27.94 41.79 27.52 46.70 30.02
  C 48.71 31.04 48.42 33.91 47.82 36.02
  Q 39.12 66.37 36.04 97.75
  A 0.42 0.42 0.0 0 0 36.41 98.21
  C 48.00 99.70 70.44 99.43 78.35 88.98
  C 85.59 79.42 80.65 68.84 69.16 66.94
  Q 64.16 66.11 59.08 65.94
  C 53.85 65.76 54.17 52.88 62.69 52.37
  C 74.01 51.69 89.42 49.77 94.72 37.88
  C 99.08 28.12 92.17 19.96 82.37 17.35
  C 60.71 11.58 32.66 18.29 13.73 29.51
  C 8.23 32.77 3.30 28.93 4.74 22.74
  C 6.36 15.70 16.26 11.64 22.27 9.29
  C 43.06 1.19 68.94 -2.11 91.25 3.26
  C 106.95 7.04 119.04 20.27 114.05 37.23
  C 110.25 50.18 97.97 57.36 85.47 59.99
  A 0.51 0.51 0.0 0 0 85.45 60.99
  C 103.80 65.67 104.63 86.07 93.72 98.02
  C 85.38 107.15 68.73 111.92 55.97 112.70
  Q 47.24 113.23 35.98 112.62
  Q 35.45 112.59 35.30 113.10
  Q 33.48 119.33 25.86 120.00
  Z"
/>
</svg>
