<?xml version="1.0" encoding="UTF-8" standalone="no"?>
<!DOCTYPE svg PUBLIC "-//W3C//DTD SVG 1.1//EN" "http://www.w3.org/Graphics/SVG/1.1/DTD/svg11.dtd">
<svg xmlns="http://www.w3.org/2000/svg" version="1.1" viewBox="0.00 0.00 340.00 204.00">
<path fill="#3c97fc" d="
  M 227.50 0.00
  L 229.30 0.00
  C 246.40 2.24 244.15 29.79 241.58 41.27
  C 236.05 65.98 223.06 90.15 208.07 110.57
  A 1.08 1.06 59.3 0 0 207.87 111.38
  C 209.61 123.78 220.06 125.38 228.50 118.42
  C 231.13 116.25 234.69 112.70 237.15 109.57
  Q 237.47 109.16 237.42 108.65
  C 235.39 89.83 238.01 69.86 242.28 51.51
  C 246.18 34.70 255.24 2.10 275.32 0.00
  L 277.06 0.00
  C 284.64 1.05 288.64 7.56 289.98 14.50
  C 295.96 45.60 273.75 86.09 255.86 110.27
  A 1.55 1.52 63.4 0 0 255.57 111.17
  C 255.55 116.47 258.84 121.95 264.45 122.41
  C 271.51 122.99 279.14 116.95 282.98 111.36
  Q 283.26 110.96 283.27 110.48
  Q 283.78 96.99 287.39 84.06
  C 290.11 74.33 291.65 68.53 302.97 69.61
  C 306.68 69.97 307.63 71.45 306.91 75.11
  C 304.83 85.70 302.14 95.60 300.69 107.28
  C 300.32 110.32 299.53 116.56 303.39 117.51
  Q 303.90 117.63 304.34 117.37
  C 314.09 111.67 320.22 88.27 323.38 77.71
  Q 324.50 73.94 325.58 72.50
  C 328.16 69.07 339.19 67.33 340.00 72.82
  L 340.00 73.58
  C 336.99 93.49 333.58 113.33 330.47 133.24
  Q 326.73 157.22 318.13 179.91
  C 313.81 191.31 306.19 202.71 292.97 204.00
  L 291.21 204.00
  C 278.93 202.68 274.11 193.92 275.93 182.48
  C 278.85 164.12 299.68 146.90 313.99 136.19
  Q 314.34 135.92 314.41 135.49
  L 316.85 119.55
  A 0.27 0.27 0.0 0 0 316.34 119.40
  Q 315.33 121.54 314.39 123.95
  C 310.56 133.87 299.92 143.58 289.52 134.90
  C 287.64 133.33 286.44 130.85 285.13 128.62
  A 0.52 0.52 0.0 0 0 284.31 128.52
  C 274.15 138.78 256.40 143.11 245.85 131.07
  C 244.37 129.38 243.07 126.79 241.74 124.64
  Q 241.43 124.13 241.02 124.56
  C 230.77 135.16 213.33 145.23 199.94 132.87
  C 197.61 130.71 195.78 127.55 194.09 124.56
  A 0.47 0.47 0.0 0 0 193.32 124.49
  C 188.27 130.57 180.37 137.56 172.70 138.21
  C 165.31 138.84 159.08 133.53 156.97 126.67
  A 0.63 0.63 0.0 0 0 155.82 126.55
  C 145.32 144.95 120.08 141.14 117.97 118.92
  C 115.83 96.43 131.82 68.86 157.24 69.51
  C 160.89 69.61 161.25 71.72 162.27 74.59
  Q 162.46 75.13 163.02 75.03
  C 169.44 73.86 177.45 73.38 175.59 83.01
  Q 171.85 102.35 170.22 116.21
  Q 169.64 121.08 173.49 122.08
  C 178.38 123.35 186.36 113.54 189.31 110.16
  A 2.13 2.09 -27.7 0 0 189.81 108.60
  C 187.44 83.14 192.08 55.40 200.27 31.80
  C 204.64 19.21 212.42 2.49 227.50 0.00
  Z
  M 226.71 14.91
  A 2.02 2.01 45.3 0 0 224.00 14.89
  C 219.26 19.13 216.53 29.43 214.92 35.48
  Q 207.71 62.51 206.72 90.47
  A 0.29 0.29 0.0 0 0 207.25 90.63
  Q 220.26 69.41 226.69 45.24
  C 228.38 38.85 231.97 19.72 226.71 14.91
  Z
  M 273.58 14.42
  C 267.40 14.66 262.38 35.75 261.28 40.30
  Q 255.31 65.02 254.34 90.44
  A 0.25 0.25 0.0 0 0 254.80 90.58
  C 267.21 70.57 277.50 45.98 276.92 21.95
  Q 276.82 17.73 274.52 14.85
  A 1.12 1.12 0.0 0 0 273.58 14.42
  Z
  M 139.19 122.81
  C 146.72 126.26 151.41 116.91 152.66 110.93
  Q 155.55 97.11 158.09 84.05
  Q 158.39 82.50 156.84 82.82
  C 141.69 85.99 134.96 102.88 135.83 116.72
  C 135.98 119.13 137.06 121.84 139.19 122.81
  Z
  M 310.26 153.79
  C 302.33 160.62 287.90 174.40 289.87 186.19
  C 290.56 190.33 294.45 190.76 297.15 188.05
  C 304.84 180.33 308.55 164.46 310.74 154.08
  A 0.30 0.30 0.0 0 0 310.26 153.79
  Z"
/>
<path fill="#3c97fc" d="
  M 34.75 136.92
  C 33.61 144.17 25.20 145.56 19.42 144.37
  C 13.59 143.16 13.60 137.53 14.00 132.67
  Q 17.31 91.68 28.50 50.25
  Q 29.96 44.85 35.15 43.59
  C 40.13 42.38 51.64 41.95 49.06 50.76
  Q 39.14 84.74 35.73 119.96
  Q 35.68 120.52 36.23 120.58
  C 49.88 122.20 71.14 121.68 81.28 112.04
  C 87.86 105.77 88.92 95.19 81.57 89.31
  C 76.40 85.17 67.56 84.39 60.96 84.53
  A 1.35 1.34 -28.9 0 1 60.19 84.31
  C 55.36 81.07 57.67 70.20 63.69 69.59
  Q 66.16 69.33 70.18 69.14
  C 81.69 68.58 99.16 63.53 102.15 50.22
  C 105.71 34.38 87.81 29.12 76.00 28.50
  Q 40.59 26.64 10.95 43.73
  C -0.87 50.56 -2.37 34.05 6.13 28.60
  C 23.12 17.71 45.24 12.72 65.06 11.87
  C 87.48 10.92 127.65 14.94 123.64 48.01
  C 121.53 65.37 106.29 74.12 90.79 78.02
  A 0.48 0.47 -44.5 0 0 90.78 78.94
  C 103.61 82.36 109.88 92.56 107.52 105.56
  C 102.20 134.83 59.19 138.52 35.41 136.40
  Q 34.84 136.35 34.75 136.92
  Z"
/>
</svg>
